<svg id="Layer_1" data-name="Layer 1" xmlns="http://www.w3.org/2000/svg" viewBox="0 0 1200 1200"><defs><style>.cls-1{fill:#bf6b00;}.cls-2{fill:#39ce20;}.cls-3{fill:#ff8e00;}</style></defs><path class="cls-1" d="M925.34,742.39s-35.47-57.51-274.91-131.15c191.46,0,341.31,26.41,341.31,26.41Z"/><path class="cls-1" d="M274.66,742.39s35.47-57.51,274.91-131.15c-191.46,0-341.31,26.41-341.31,26.41Z"/><path class="cls-2" d="M822.75,597.87a76.35,76.35,0,0,1-29.64,60.55c-1.2.9-2.34,1.89-3.47,2.84-67.36,23.62-131.07,54.49-189.58,93-58.51-38.54-122.23-69.41-189.58-93,.17.15-3.59-2.84-3.59-2.84a76.58,76.58,0,0,1-7.56-114.3C502.78,473.83,592.83,402.58,600,325.72c7.18,76.86,97.23,148.11,200.68,218.4A76.24,76.24,0,0,1,822.75,597.87Z"/><path class="cls-2" d="M654.11,281.38a43.38,43.38,0,1,1-58.63-58.63,43.38,43.38,0,0,0,58.63,58.63Z"/><polygon class="cls-2" points="649.38 227.48 640.97 244 654.08 257.11 635.76 254.21 627.35 270.73 624.45 252.41 606.13 249.51 622.65 241.1 619.75 222.78 632.86 235.9 649.38 227.48"/><path class="cls-3" d="M206.56,769.3c218.85,3.43,421.09,46.32,571.65,208-.21-.41-1-1.76-2.45-4-125.43-206.07-333.34-292-567.5-335.59q-1.42,31.33-1.87,62.51Q205.88,734.71,206.56,769.3Z"/><path class="cls-3" d="M993.44,769.3c-218.85,3.43-421.09,46.32-571.65,208,.21-.41,1-1.76,2.45-4,125.43-206.07,333.34-292,567.5-335.59q1.43,31.33,1.87,62.51Q994.12,734.71,993.44,769.3Z"/></svg>