<svg width="52" height="50" viewBox="0 0 52 50" fill="none" xmlns="http://www.w3.org/2000/svg">
<path d="M47.4785 34.4338C47.4785 34.4338 45.1368 30.6229 29.3293 25.7432C41.9692 25.7432 51.8621 27.4932 51.8621 27.4932L47.4785 34.4338Z" fill="white"/>
<path d="M4.52152 34.4338C4.52152 34.4338 6.8632 30.6229 22.6707 25.7432C10.0308 25.7432 0.137884 27.4932 0.137884 27.4932L4.52152 34.4338Z" fill="white"/>
<path d="M40.7056 24.8572C40.7072 25.6317 40.5316 26.3962 40.1923 27.0919C39.8531 27.7875 39.3592 28.3957 38.7488 28.8695C38.6696 28.9292 38.5944 28.9948 38.5198 29.0577C34.0728 30.6229 29.8667 32.6685 26.004 35.2203C22.1412 32.6665 17.9345 30.6209 13.4882 29.0577C13.4994 29.0677 13.2512 28.8695 13.2512 28.8695C12.6866 28.4298 12.2212 27.875 11.8859 27.2417C11.5505 26.6083 11.3528 25.9108 11.3056 25.1951C11.2584 24.4794 11.363 23.7618 11.6123 23.0896C11.8616 22.4174 12.2501 21.806 12.7521 21.2955C19.5817 16.6377 25.5266 11.9164 26 6.82327C26.474 11.9164 32.419 16.6377 39.2486 21.2955C40.1836 22.2431 40.7074 23.5235 40.7056 24.8572Z" fill="white"/>
<path d="M29.5723 3.8851C29.3627 4.28279 29.063 4.62554 28.6973 4.88579C28.3317 5.14603 27.9103 5.31649 27.4671 5.38346C27.0238 5.45043 26.5711 5.41204 26.1453 5.27137C25.7196 5.1307 25.3327 4.89168 25.0157 4.57355C24.6987 4.25541 24.4606 3.86705 24.3205 3.4397C24.1803 3.01234 24.1421 2.55794 24.2088 2.11304C24.2755 1.66815 24.4453 1.24518 24.7046 0.878178C24.9639 0.511174 25.3054 0.210381 25.7016 0C25.4153 0.543254 25.31 1.16432 25.4011 1.77205C25.4922 2.37979 25.775 2.94221 26.208 3.37679C26.641 3.81137 27.2013 4.09523 27.8068 4.18671C28.4123 4.27819 29.031 4.17248 29.5723 3.8851Z" fill="white"/>
<path d="M29.26 0.313432L28.7048 1.40812L29.5703 2.27685L28.3608 2.08469L27.8056 3.17938L27.6142 1.96541L26.4047 1.77324L27.4953 1.21596L27.3039 0.00198793L28.1694 0.87138L29.26 0.313432Z" fill="white"/>
<path d="M0.0256529 36.2169C14.4738 36.4442 27.8254 39.2863 37.7652 50C37.7513 49.9728 37.6992 49.8834 37.6034 49.7349C29.3227 36.0798 15.5968 30.3857 0.137884 27.4972C0.0753867 28.8812 0.0342354 30.262 0.0144298 31.6394C-0.00801649 33.163 -0.00427556 34.6889 0.0256529 36.2169Z" fill="white"/>
<path d="M51.9744 36.2169C37.5262 36.4442 24.1746 39.2863 14.2348 50C14.2487 49.9728 14.3008 49.8834 14.3966 49.7349C22.6773 36.0798 36.4032 30.3857 51.8621 27.4972C51.9251 28.8812 51.9662 30.262 51.9856 31.6394C52.008 33.163 52.0043 34.6889 51.9744 36.2169Z" fill="white"/>
</svg>
